2lords presents: Harry Potter mega 720p HD Pack.
-------------------------------------------------
(((((((((Changeable-Dutch-Subs))))))))))

Harry potter 1: the Sorcerer's Stone
------------------------------------
------------------------------------

Verenigde Staten
Avontuur / Fantasy

geregisseerd door Chris Columbus
met Daniel Radcliffe, Emma Watson en Rupert Grint

De jonge Harry Potter woont na de dood van zijn ouders bij z'n oom en tante, waar hij slecht behandeld wordt. Op een dag krijgt hij te horen dat zijn ouders tovenaars waren, en dat hij uitgenodigd is om te gaan studeren aan de Hogwarts School voor Hekserij en Tovenarij. Verfilming van het eerste boek uit de succesvolle Harry Potter-reeks van J.K. Rowling. 
http://moviemeter.nl/film/698

-----------------------------

Harry Potter thinks he is an ordinary boy celebrating his 11th birthday, but he is far from wrong. A giant named Hagrid appears, and gives Harry the all important news. He is a wizard. Now his journey in life gets more intense as he travels to Hogwarts school of witchcraft and wizardry to learn the trade of being a wizard. Here, he meets his friends who would be by his side for many years to come. Ron Weasley is not very brave friend and Hermione is the smart friend. But not everything is quiet at Hogwarts as Harry suspects someone is planning to steal the philosopher's stone. 
http://www.imdb.com/title/tt0241527/

------------------------------------


Harry Potter 2: the Chamber of Secrets 
--------------------------------------
--------------------------------------

Verenigde Staten
Avontuur / Fantasy
161 minuten

geregisseerd door Chris Columbus
met Daniel Radcliffe, Emma Watson en Rupert Grint

Vlak voor zijn tweede jaar op de Hogwarts School voor Hekserij en Tovenarij wordt tovenaarsleerling Harry Potter door de elf Dobby gewaarschuwd dat zijn terugkeer op de school tot een ramp zal leiden. Harry gaat toch, en komt er achter dat hij nog steeds gehaat wordt door Professor Snape en zijn klasgenoot Draco Malfoy. Er is echter ook goed nieuws: de beroemde schrijver Gilderoy Lockhart is de nieuwe Duistere Krachten-leraar. Na een tijdje worden enkele Hogwarts-studenten versteend aangetroffen... maar wie of wat is de oorzaak hiervan? Zelfs Harry staat niet boven verdenking. 
http://moviemeter.nl/film/2099

------------------------------

Harry Potter is in his second year of Hogwarts School of Witchcraft and Wizardry. He is visited by a house-elf named Dobby and warned not to go back to Hogwarts. Harry ignores his warning, and returns. He is still famous, although still disliked by Snape, Malfoy, and the rest of the Slytherins. But then, strange things start to happen. People are becoming petrified, and no-one knows what is doing it. Harry keeps hearing a voice.. a voice which seems to be coming from within the walls. They are told the story of the Chamber of Secrets. It is said that only Salazar Slytherin's true descendent will be able to open it. Harry, it turns out, is a Parsel-tongue. This means that he is able to speak/understand snakes. Everyone thinks that it's him that has opened the Chamber of Secrets because that is what Slytherin was famous for. 
http://www.imdb.com/title/tt0295297/

------------------------------------


Harry potter 3: the Goblet of Fire
----------------------------------
----------------------------------

Verenigd Koninkrijk / Verenigde Staten
Avontuur / Fantasy
151 minuten

geregisseerd door Mike Newell
met Daniel Radcliffe, Emma Watson en Rupert Grint

Harry gaat samen met zijn vrienden Ron en Hermione naar het WK Quidditch. Helaas loopt dit evenement mis doordat een groep volgelingen van Voldemort, ook wel Dooddoeners genoemd, door het veld parradeert. Er zijn gelukkig geen gewonden of doden maar de kans dat Voldemort gaat terugkeren wordt wel steeds groter... Op Hogwarts is er een ander evenement; het Tri Wizard Tournement. Hierin moeten drie kampioenen van drie verschillende toverscholen drie gevaarlijke opdrachten voltooien om de Toverschool beker te winnen. Deze drie kampioenen worden door de Goblet of Fire gekozen. Hij kiest Fleur Delacour van Beauxbatons, Viktor Krum van Klammfels en Cedric Diggory van Hogwarts. Echter, de vuurbeker spuwt nóg een naam uit; Harry Potter... 
http://moviemeter.nl/film/28148

-------------------------------

Harry's fourth year at Hogwarts is about to start and he is enjoying the summer vacation with his friends. They get the tickets to The Quidditch World Cup Final but after the match is over, people dressed like Lord Voldemort's 'Death Eaters' set a fire to all the visitors' tents, coupled with the appearance of Voldemort's symbol, the 'Dark Mark' in the sky, which causes a frenzy across the magical community. That same year, Hogwarts is hosting 'The Triwizard Tournament', a magical tournament between three well-known schools of magic : Hogwarts, Beauxbatons and Durmstrang. The contestants have to be above the age of 17, and are chosen by a magical object called Goblet of Fire. On the night of selection, however, the Goblet spews out four names instead of the usual three, with Harry unwittingly being selected as the Fourth Champion. Since the magic cannot be reversed, Harry is forced to go with it and brave three exceedingly difficult tasks. 
http://www.imdb.com/title/tt0330373/

------------------------------------


Harry potter 4: the Prisoner of Azkaban
---------------------------------------
---------------------------------------

Verenigde Staten / Verenigd Koninkrijk
Avontuur / Fantasy
141 minuten

geregisseerd door Alfonso Cuarón
met Daniel Radcliffe, Rupert Grint en Emma Watson

Het is Harry's derde jaar op Hogwarts. Een gevaarlijke massamoordenaar, Sirius Black, is ontsnapt uit de Azkaban gevangenis, en iedereen is er van overtuigd dat hij er op uit is om Harry te vermoorden. Terwijl hij leert om te gaan met de Dementors die naar Hogwarts zijn gestuurd om de school te beschermen leert Harry het verontrustende verhaal van Black, en zijn connecties met Harry's familie. 
http://moviemeter.nl/film/5909

------------------------------

Harry Potter is having a tough time with his relatives (yet again). He runs away after using magic to blow Uncle Vernon's sister Marge who was being offensive towards Harry's parents. Initially scared for using magic outside the school, he is pleasantly surprised that he won't be penalized after all. However, he soon learns that a dangerous criminal and Voldemort's trusted aide Sirius Black has escaped from the Azkaban prison and wants to kill Harry to avenge the Dark Lord. To worsen the conditions for Harry, vile shape-shifters called Dementors are appointed to guard the school gates and inexplicably happen to have the most horrible effect on him. Little does Harry know that by the end of this year, many holes in his past (whatever he knows of it) will be filled up and he will have a clearer vision of what the future has in store... 
http://www.imdb.com/title/tt0304141/

------------------------------------

Harry potter 5: the Order of the Phoenix 
----------------------------------------
----------------------------------------

Verenigde Staten / Verenigd Koninkrijk
Avontuur / Fantasy
138 minuten

geregisseerd door David Yates
met Daniel Radcliffe, Emma Watson en Rupert Grint

Harry wordt dit jaar opgehaald bij de Duffelingen door een groep tovenaars opgericht door Dumbledore, de Order of the Phoenix, deze proberen Voldemorts plannen te dwarsbomen. In het hoofdkwartier van die Order blijkt al snel dat bijna niemand gelooft dat Voldemort is teruggekeerd. Harry heeft tegenwoordig vreemde dromen over Voldemort die misschien wel eens echt zouden kunnen zijn... Uiteindelijk gaat Harry naar Hogwarts. Ook is er dit keer weer een nieuwe lerares verweer tegen de zwarte kunsten. Maar deze is vreselijk en leert de leerlingen helemaal niks. Hierdoor gaan Harry en zijn vrienden een geheim genootschap oprichten, Dumbledore's Army. Dit genootschap van leerlingen leert van Harry hoe ze zich moeten verdedigen. Aan het einde van het jaar krijgt Harry een droom over zijn peetvader, Sirius Black, die wordt gemarteld door Voldemort... 
http://moviemeter.nl/film/39313

-------------------------------

After returning to Hogwarts to begin his fifth year at Hogwarts, Harry Potter discovers that much of the wizarding world, including the Ministry of Magic, is in denial about Lord Voldemort's return. The Order of the Phoenix, a group sworn against Voldemort, is using its vast array of wizards and witches magical abilities to combat Voldemort. Cornelius Fudge, Minister for Magic, suspects that Dumbledore is using these claims of The Dark Lord's return as a means to over-throw Fudge as Minister. In retaliation, a new Defence Against the Dark Arts teacher is appointed by the Ministry in order to keep an eye on Hogwarts. This new teacher, Professor Umbridge, implies strict new teachings and rules, forcing a group of students, under the tutelage of Harry, to form a club, by the name of Dumbledore's Army...   
http://www.imdb.com/title/tt0373889/



Harry Potter 1 file-info
------------------------

Format                           : Matroska
File size                        : 7.16 GiB
Duration                         : 2h 32mn
Overall bit rate                 : 6 731 Kbps
Encoded date                     : UTC 2009-04-06 16:39:59
Writing application              : mkvmerge v2.6.0 ('Kelly watch the Stars') built on Mar 24 2009 15:23:17
Writing library                  : libebml v0.7.7 + libmatroska v0.8.1

Video
ID                               : 1
Format                           : AVC
Format/Info                      : Advanced Video Codec
Format profile                   : High@L4.1
Format settings, CABAC           : Yes
Format settings, ReFrames        : 6 frames
Muxing mode                      : Container profile=Unknown@4.1
Codec ID                         : V_MPEG4/ISO/AVC
Duration                         : 2h 32mn
Bit rate                         : 5 087 Kbps
Width                            : 1 280 pixels
Height                           : 528 pixels
Display aspect ratio             : 2.424
Frame rate                       : 23.976 fps
Resolution                       : 24 bits
Colorimetry                      : 4:2:0
Scan type                        : Progressive
Bits/(Pixel*Frame)               : 0.314
Stream size                      : 5.41 GiB (76%)
Title                            : Harry Potter 1
Writing library                  : x264 core 67 r1127 8d82fec
Encoding settings                : cabac=1 / ref=6 / deblock=1:0:0 / analyse=0x3:0x133 / me=umh / subme=9 / psy_rd=1.0:0.0 / mixed_ref=1 / me_range=32 / chroma_me=1 / trellis=2 / 8x8dct=1 / cqm=0 / deadzone=21,11 / chroma_qp_offset=-2 / threads=6 / nr=0 / decimate=1 / mbaff=0 / bframes=3 / b_pyramid=1 / b_adapt=1 / b_bias=0 / direct=1 / wpredb=1 / keyint=250 / keyint_min=25 / scenecut=40 / rc=crf / crf=20.0 / qcomp=0.60 / qpmin=10 / qpmax=51 / qpstep=4 / ip_ratio=1.40 / pb_ratio=1.30 / aq=1:1.00

Audio
ID                               : 2
Format                           : DTS
Format/Info                      : Digital Theater Systems
Codec ID                         : A_DTS
Duration                         : 2h 32mn
Bit rate mode                    : Constant
Bit rate                         : 1 510 Kbps
Channel(s)                       : 6 channels
Channel positions                : Front: L C R, Surround: L R, LFE
Sampling rate                    : 48.0 KHz
Resolution                       : 16 bits
Stream size                      : 1.61 GiB (22%)
Title                            : DTS
Language                         : English

Text #1
ID                               : 3
Format                           : UTF-8
Codec ID                         : S_TEXT/UTF8
Codec ID/Info                    : UTF-8 Plain Text
Title                            : -
Language                         : English

Text #2
ID                               : 4
Format                           : UTF-8
Codec ID                         : S_TEXT/UTF8
Codec ID/Info                    : UTF-8 Plain Text
Title                            : -
Language                         : Dutch

Text #3
ID                               : 5
Format                           : UTF-8
Codec ID                         : S_TEXT/UTF8
Codec ID/Info                    : UTF-8 Plain Text
Title                            : -
Language                         : Danish

Text #4
ID                               : 6
Format                           : UTF-8
Codec ID                         : S_TEXT/UTF8
Codec ID/Info                    : UTF-8 Plain Text
Title                            : -
Language                         : Finnish

Text #5
ID                               : 7
Format                           : UTF-8
Codec ID                         : S_TEXT/UTF8
Codec ID/Info                    : UTF-8 Plain Text
Title                            : -
Language                         : Norwegian

Text #6
ID                               : 8
Format                           : UTF-8
Codec ID                         : S_TEXT/UTF8
Codec ID/Info                    : UTF-8 Plain Text
Title                            : -
Language                         : Swedish

Menu
00:00:00.000                     : en:Doorstep Delivery
00:04:05.412                     : en:Vanishing Glass
00:08:11.157                     : en:Letters From No One
00:12:17.403                     : en:Keeper of the Keys
00:18:25.271                     : en:Diagon Alley
00:21:43.636                     : en:Gringotts
00:24:41.647                     : en:Ollivanders
00:28:49.561                     : en:The Boy Who Lived
00:31:05.197                     : en:Platform 9-3/4
00:34:05.543                     : en:Ron Hermione
00:37:49.601                     : en:Welcome to Hogwarts
00:41:29.487                     : en:Sorting Hat
00:46:13.437                     : en:Nick and Other Residents
00:50:29.026                     : en:Potions and Parcels
00:55:04.301                     : en:New Seeker
01:00:55.652                     : en:Three-Headed Sentinel
01:03:43.987                     : en:Facts and Feathers
01:07:48.231                     : en:Mountain Troll
01:13:49.258                     : en:Quidditch
01:20:17.980                     : en:Interference Overcome
01:23:54.529                     : en:Christmas Gift
01:28:32.474                     : en:Cloaked in Darkness
01:31:42.497                     : en:Mirror of Erised
01:36:42.630                     : en:Norbert
01:42:34.815                     : en:Forbidden Forest
01:49:05.038                     : en:Up to Something
01:53:21.628                     : en:Through the Trapdoor
01:58:09.749                     : en:Wizards Chess
02:03:44.751                     : en:Sacrifice Play
02:06:56.108                     : en:Man With Two Faces
02:10:55.347                     : en:Magic Touch
02:14:18.884                     : en:Mark of Love
02:17:29.575                     : en:House Cup Winner
02:21:44.663                     : en:Not Really Going Home
02:24:10.809                     : en:End Credits


Harry Potter 2 File-info
------------------------

Format                           : Matroska
File size                        : 7.81 GiB
Duration                         : 2h 40mn
Overall bit rate                 : 6 945 Kbps
Encoded date                     : UTC 2009-05-02 08:08:52
Writing application              : mkvmerge v2.6.0 ('Kelly watch the Stars') built on Mar 24 2009 15:23:17
Writing library                  : libebml v0.7.7 + libmatroska v0.8.1

Video
ID                               : 1
Format                           : AVC
Format/Info                      : Advanced Video Codec
Format profile                   : High@L4.1
Format settings, CABAC           : Yes
Format settings, ReFrames        : 6 frames
Muxing mode                      : Container profile=Unknown@4.1
Codec ID                         : V_MPEG4/ISO/AVC
Duration                         : 2h 40mn
Bit rate                         : 5 297 Kbps
Width                            : 1 280 pixels
Height                           : 536 pixels
Display aspect ratio             : 2.35
Frame rate                       : 23.976 fps
Resolution                       : 24 bits
Colorimetry                      : 4:2:0
Scan type                        : Progressive
Bits/(Pixel*Frame)               : 0.322
Stream size                      : 5.95 GiB (76%)
Title                            : Harry Potter 2
Writing library                  : x264 core 67 r1127 8d82fec
Encoding settings                : cabac=1 / ref=6 / deblock=1:0:0 / analyse=0x3:0x133 / me=umh / subme=9 / psy_rd=1.0:0.0 / mixed_ref=1 / me_range=32 / chroma_me=1 / trellis=2 / 8x8dct=1 / cqm=0 / deadzone=21,11 / chroma_qp_offset=-2 / threads=6 / nr=0 / decimate=1 / mbaff=0 / bframes=3 / b_pyramid=1 / b_adapt=1 / b_bias=0 / direct=1 / wpredb=1 / keyint=250 / keyint_min=25 / scenecut=40 / rc=crf / crf=19.0 / qcomp=0.60 / qpmin=10 / qpmax=51 / qpstep=4 / ip_ratio=1.40 / pb_ratio=1.30 / aq=1:1.00

Audio
ID                               : 2
Format                           : DTS
Format/Info                      : Digital Theater Systems
Codec ID                         : A_DTS
Duration                         : 2h 40mn
Bit rate mode                    : Constant
Bit rate                         : 1 510 Kbps
Channel(s)                       : 6 channels
Channel positions                : Front: L C R, Surround: L R, LFE
Sampling rate                    : 48.0 KHz
Resolution                       : 16 bits
Stream size                      : 1.70 GiB (22%)
Title                            : DTS
Language                         : English

Text #1
ID                               : 3
Format                           : UTF-8
Codec ID                         : S_TEXT/UTF8
Codec ID/Info                    : UTF-8 Plain Text
Title                            : -
Language                         : Danish

Text #2
ID                               : 4
Format                           : UTF-8
Codec ID                         : S_TEXT/UTF8
Codec ID/Info                    : UTF-8 Plain Text
Title                            : -
Language                         : Dutch

Text #3
ID                               : 5
Format                           : UTF-8
Codec ID                         : S_TEXT/UTF8
Codec ID/Info                    : UTF-8 Plain Text
Title                            : -
Language                         : English

Text #4
ID                               : 6
Format                           : UTF-8
Codec ID                         : S_TEXT/UTF8
Codec ID/Info                    : UTF-8 Plain Text
Title                            : -
Language                         : Finnish

Text #5
ID                               : 7
Format                           : UTF-8
Codec ID                         : S_TEXT/UTF8
Codec ID/Info                    : UTF-8 Plain Text
Title                            : -
Language                         : Norwegian

Text #6
ID                               : 8
Format                           : UTF-8
Codec ID                         : S_TEXT/UTF8
Codec ID/Info                    : UTF-8 Plain Text
Title                            : -
Language                         : Swedish

Menu
00:00:00.000                     : en:In a Cage
00:03:01.014                     : en:Dobby's Warning
00:07:55.558                     : en:Car Rescue
00:10:40.640                     : en:The Burrow
00:14:07.096                     : en:To Diagon Alley
00:17:57.743                     : en:Flourish and Blotts
00:22:16.126                     : en:Flying to Hogwarts
00:25:49.631                     : en:Whomping Willow
00:28:50.354                     : en:Not Expelled... Today
00:31:07.991                     : en:Mandrakes; Ron's Howler
00:35:14.195                     : en:Gilderoy Lockhart
00:38:00.403                     : en:Mudbloods and Murmers
00:42:47.982                     : en:Writing on the Wall
00:48:16.143                     : en:About the Chamber
00:52:16.133                     : en:Rogue Bludger
00:57:56.973                     : en:No Longer Safe
01:03:13.873                     : en:Dueling Club
01:07:50.525                     : en:A Parselmouth
01:11:56.145                     : en:Nothing to Tell
01:17:22.388                     : en:Polyjuice Potion
01:21:33.847                     : en:Harry and Ron Transformed
01:25:39.926                     : en:The Diary
01:29:42.252                     : en:Tom Riddle
01:33:30.355                     : en:Petrified
01:37:42.899                     : en:Cornelius Fudge
01:42:49.080                     : en:Aragog
01:47:01.624                     : en:Spider Attack
01:51:07.995                     : en:Missing
01:55:26.211                     : en:Chamber of Secrets
02:00:53.288                     : en:Backfire
02:04:09.776                     : en:Heir of Slytherin
02:09:32.306                     : en:The Basilisk
02:14:32.439                     : en:Healing Powers
02:18:05.944                     : en:Out of the Hat
02:21:20.222                     : en:Dobby's Reward
02:26:35.453                     : en:Welcome Back
02:31:43.094                     : en:End Credits

Harry potter 3 file-info
------------------------

Format                           : Matroska
File size                        : 6.40 GiB
Duration                         : 2h 21mn
Overall bit rate                 : 6 462 Kbps
Encoded date                     : UTC 2009-05-16 12:50:09
Writing application              : mkvmerge v2.8.0 ('The Tree') built on May  9 2009 18:02:06
Writing library                  : libebml v0.7.7 + libmatroska v0.8.1

Video
ID                               : 1
Format                           : AVC
Format/Info                      : Advanced Video Codec
Format profile                   : High@L4.1
Format settings, CABAC           : Yes
Format settings, ReFrames        : 6 frames
Muxing mode                      : Container profile=Unknown@4.1
Codec ID                         : V_MPEG4/ISO/AVC
Duration                         : 2h 21mn
Bit rate                         : 4 824 Kbps
Width                            : 1 280 pixels
Height                           : 528 pixels
Display aspect ratio             : 2.424
Frame rate                       : 23.976 fps
Resolution                       : 24 bits
Colorimetry                      : 4:2:0
Scan type                        : Progressive
Bits/(Pixel*Frame)               : 0.298
Stream size                      : 4.77 GiB (75%)
Title                            : Harry Potter 3
Writing library                  : x264 core 67 r1148 400740b
Encoding settings                : cabac=1 / ref=6 / deblock=1:0:0 / analyse=0x3:0x133 / me=umh / subme=9 / psy_rd=1.0:0.0 / mixed_ref=1 / me_range=32 / chroma_me=1 / trellis=2 / 8x8dct=1 / cqm=0 / deadzone=21,11 / chroma_qp_offset=-2 / threads=6 / nr=0 / decimate=1 / mbaff=0 / bframes=3 / b_pyramid=1 / b_adapt=1 / b_bias=0 / direct=1 / wpredb=1 / keyint=250 / keyint_min=25 / scenecut=40 / rc=crf / crf=19.0 / qcomp=0.60 / qpmin=10 / qpmax=51 / qpstep=4 / ip_ratio=1.40 / pb_ratio=1.30 / aq=1:1.00

Audio
ID                               : 2
Format                           : DTS
Format/Info                      : Digital Theater Systems
Codec ID                         : A_DTS
Duration                         : 2h 21mn
Bit rate mode                    : Constant
Bit rate                         : 1 510 Kbps
Channel(s)                       : 6 channels
Channel positions                : Front: L C R, Surround: L R, LFE
Sampling rate                    : 48.0 KHz
Resolution                       : 16 bits
Stream size                      : 1.49 GiB (23%)
Title                            : DTS
Language                         : English

Text #1
ID                               : 3
Format                           : UTF-8
Codec ID                         : S_TEXT/UTF8
Codec ID/Info                    : UTF-8 Plain Text
Title                            : -
Language                         : English

Text #2
ID                               : 4
Format                           : UTF-8
Codec ID                         : S_TEXT/UTF8
Codec ID/Info                    : UTF-8 Plain Text
Title                            : -
Language                         : Dutch

Text #3
ID                               : 5
Format                           : UTF-8
Codec ID                         : S_TEXT/UTF8
Codec ID/Info                    : UTF-8 Plain Text
Title                            : -
Language                         : Danish

Text #4
ID                               : 6
Format                           : UTF-8
Codec ID                         : S_TEXT/UTF8
Codec ID/Info                    : UTF-8 Plain Text
Title                            : -
Language                         : Finnish

Text #5
ID                               : 7
Format                           : UTF-8
Codec ID                         : S_TEXT/UTF8
Codec ID/Info                    : UTF-8 Plain Text
Title                            : -
Language                         : Norwegian

Text #6
ID                               : 8
Format                           : UTF-8
Codec ID                         : S_TEXT/UTF8
Codec ID/Info                    : UTF-8 Plain Text
Title                            : -
Language                         : Swedish

Menu
00:00:00.000                     : en:Under Covers Prologue
00:01:40.100                     : en:Aunt Marge's Big Mistake
00:06:36.229                     : en:The Knight Bus
00:12:45.932                     : en:The Leaky Cauldron
00:14:52.517                     : en:The Monster Book of Monsters
00:16:12.513                     : en:In Grave Danger
00:18:56.218                     : en:The Dementor
00:23:50.387                     : en:Welcome and Warning
00:28:50.729                     : en:Tea Leaves
00:31:21.838                     : en:Buckbeak
00:38:50.161                     : en:Boggart in the Wardrobe
00:44:45.308                     : en:Talent for Trouble
00:47:37.813                     : en:Flight of the Fat Lady
00:49:39.935                     : en:Substitute Teacher
00:53:42.845                     : en:Grim Defeat
00:57:28.403                     : en:The Marauder's Map
01:01:23.722                     : en:Who's There?
01:03:22.924                     : en:I Hope He Finds Me
01:07:10.985                     : en:The Patronus
01:11:53.476                     : en:Seeing the Impossible
01:19:10.079                     : en:Professor Trelawney's Prediction
01:22:29.945                     : en:Witnesses to an Execution
01:27:30.871                     : en:The Whomping Willow
01:30:13.366                     : en:Sirius Black
01:34:19.028                     : en:Peter Pettigrew
01:36:56.894                     : en:Friends Become Foes
01:42:24.472                     : en:The Dementor's Kiss
01:45:40.334                     : en:Hermione's Secret
01:50:03.597                     : en:Onlookers to the Rescue
01:55:33.343                     : en:Saving Lives
02:00:07.409                     : en:Truly Seen, Truly Free
02:03:16.055                     : en:Two Places at Once
02:06:02.513                     : en:Mischief Managed
02:08:42.924                     : en:The Firebolt
02:09:47.405                     : en:End Credits Map

Harry potter 4 file-info
------------------------

Format                           : Matroska
File size                        : 7.96 GiB
Duration                         : 2h 37mn
Overall bit rate                 : 7 250 Kbps
Encoded date                     : UTC 2009-06-06 09:02:16
Writing application              : mkvmerge v2.9.0 ('Moanin'') built on May 22 2009 17:46:31
Writing library                  : libebml v0.7.7 + libmatroska v0.8.1

Video
ID                               : 1
Format                           : AVC
Format/Info                      : Advanced Video Codec
Format profile                   : High@L4.1
Format settings, CABAC           : Yes
Format settings, ReFrames        : 6 frames
Muxing mode                      : Container profile=Unknown@4.1
Codec ID                         : V_MPEG4/ISO/AVC
Duration                         : 2h 36mn
Bit rate                         : 5 596 Kbps
Width                            : 1 280 pixels
Height                           : 536 pixels
Display aspect ratio             : 2.35
Frame rate                       : 23.976 fps
Resolution                       : 24 bits
Colorimetry                      : 4:2:0
Scan type                        : Progressive
Bits/(Pixel*Frame)               : 0.340
Stream size                      : 6.13 GiB (77%)
Title                            : Harry Potter 4
Writing library                  : x264 core 67 r1148 400740b
Encoding settings                : cabac=1 / ref=6 / deblock=1:0:0 / analyse=0x3:0x133 / me=umh / subme=9 / psy_rd=1.0:0.0 / mixed_ref=1 / me_range=32 / chroma_me=1 / trellis=2 / 8x8dct=1 / cqm=0 / deadzone=21,11 / chroma_qp_offset=-2 / threads=6 / nr=0 / decimate=1 / mbaff=0 / bframes=3 / b_pyramid=1 / b_adapt=1 / b_bias=0 / direct=1 / wpredb=1 / keyint=250 / keyint_min=25 / scenecut=40 / rc=crf / crf=19.0 / qcomp=0.60 / qpmin=10 / qpmax=51 / qpstep=4 / ip_ratio=1.40 / pb_ratio=1.30 / aq=1:1.00

Audio
ID                               : 2
Format                           : DTS
Format/Info                      : Digital Theater Systems
Codec ID                         : A_DTS
Duration                         : 2h 37mn
Bit rate mode                    : Constant
Bit rate                         : 1 510 Kbps
Channel(s)                       : 6 channels
Channel positions                : Front: L C R, Surround: L R, LFE
Sampling rate                    : 48.0 KHz
Resolution                       : 16 bits
Stream size                      : 1.66 GiB (21%)
Title                            : DTS
Language                         : English

Text #1
ID                               : 3
Format                           : UTF-8
Codec ID                         : S_TEXT/UTF8
Codec ID/Info                    : UTF-8 Plain Text
Title                            : -
Language                         : English

Text #2
ID                               : 4
Format                           : UTF-8
Codec ID                         : S_TEXT/UTF8
Codec ID/Info                    : UTF-8 Plain Text
Title                            : -
Language                         : Dutch

Text #3
ID                               : 5
Format                           : UTF-8
Codec ID                         : S_TEXT/UTF8
Codec ID/Info                    : UTF-8 Plain Text
Title                            : -
Language                         : Danish

Text #4
ID                               : 6
Format                           : UTF-8
Codec ID                         : S_TEXT/UTF8
Codec ID/Info                    : UTF-8 Plain Text
Title                            : -
Language                         : Finnish

Text #5
ID                               : 7
Format                           : UTF-8
Codec ID                         : S_TEXT/UTF8
Codec ID/Info                    : UTF-8 Plain Text
Title                            : -
Language                         : Norwegian

Text #6
ID                               : 8
Format                           : UTF-8
Codec ID                         : S_TEXT/UTF8
Codec ID/Info                    : UTF-8 Plain Text
Title                            : -
Language                         : Swedish

Menu
00:00:00.000                     : en:The Riddle House
00:03:46.560                     : en:The Portkey
00:06:09.369                     : en:The Quidditch World Cup
00:09:50.089                     : en:The Dark Mark
00:13:45.324                     : en:The Triwizard Tournament
00:19:14.987                     : en:The Goblet of Fire
00:23:09.388                     : en:The Unforgivable Curses
00:29:01.573                     : en:The Four Champions
00:36:26.684                     : en:Let Events Unfold
00:39:05.009                     : en:Rita Skeeter
00:41:32.490                     : en:Sirius Conversation
00:45:36.400                     : en:The Hungarian Horntail
00:49:07.778                     : en:Transforming Malfoy
00:54:06.243                     : en:The First Task
01:02:46.596                     : en:Best Foot Forward
01:09:12.982                     : en:An Unexpected Challenge
01:14:43.979                     : en:The Yule Ball
01:22:27.609                     : en:The Egg's Clue
01:30:34.763                     : en:The Second Task
01:39:29.297                     : en:Never Whole Again
01:42:42.490                     : en:The Pensieve
01:47:22.936                     : en:Dreams and Suspicions
01:50:19.279                     : en:The Third Task
01:58:54.461                     : en:Flesh, Blood and Bone
02:02:02.315                     : en:The Death Eaters
02:06:36.589                     : en:Priori Incantatem
02:10:01.627                     : en:Veritaserum
02:17:38.083                     : en:Parting Ways
02:23:48.620                     : en:End Credits

Harry Potter 5 file-info
------------------------

Format                           : Matroska
File size                        : 6.35 GiB
Duration                         : 2h 18mn
Overall bit rate                 : 6 572 Kbps
Movie name                       : Harry.Potter.And.The.Order.Of.The.Phoenix.2007.720p.BluRay.x264.iNTERNAL-CRF
Encoded date                     : UTC 2009-03-16 10:29:13
Writing application              : mkvmerge v2.4.2 ('Oh My God') built on Jan 18 2009 17:30:28
Writing library                  : libebml v0.7.7 + libmatroska v0.8.1

Video
ID                               : 1
Format                           : AVC
Format/Info                      : Advanced Video Codec
Format profile                   : High@L4.1
Format settings, CABAC           : Yes
Format settings, ReFrames        : 6 frames
Muxing mode                      : Container profile=Unknown@4.1
Codec ID                         : V_MPEG4/ISO/AVC
Duration                         : 2h 18mn
Bit rate                         : 4 931 Kbps
Width                            : 1 280 pixels
Height                           : 536 pixels
Display aspect ratio             : 2.35
Frame rate                       : 23.976 fps
Resolution                       : 24 bits
Colorimetry                      : 4:2:0
Scan type                        : Progressive
Bits/(Pixel*Frame)               : 0.300
Stream size                      : 4.76 GiB (75%)
Title                            : HP5
Writing library                  : x264 core 67 r1127 8d82fec
Encoding settings                : cabac=1 / ref=6 / deblock=1:0:0 / analyse=0x3:0x133 / me=umh / subme=9 / psy_rd=1.0:0.0 / mixed_ref=1 / me_range=32 / chroma_me=1 / trellis=2 / 8x8dct=1 / cqm=0 / deadzone=21,11 / chroma_qp_offset=-2 / threads=6 / nr=0 / decimate=1 / mbaff=0 / bframes=3 / b_pyramid=1 / b_adapt=1 / b_bias=0 / direct=1 / wpredb=1 / keyint=250 / keyint_min=25 / scenecut=40 / rc=crf / crf=19.0 / qcomp=0.60 / qpmin=10 / qpmax=51 / qpstep=4 / ip_ratio=1.40 / pb_ratio=1.30 / aq=1:1.00

Audio
ID                               : 2
Format                           : DTS
Format/Info                      : Digital Theater Systems
Codec ID                         : A_DTS
Duration                         : 2h 18mn
Bit rate mode                    : Constant
Bit rate                         : 1 510 Kbps
Channel(s)                       : 6 channels
Channel positions                : Front: L C R, Surround: L R, LFE
Sampling rate                    : 48.0 KHz
Resolution                       : 16 bits
Stream size                      : 1.46 GiB (23%)
Title                            : DTS
Language                         : English

Text #1
ID                               : 3
Format                           : UTF-8
Codec ID                         : S_TEXT/UTF8
Codec ID/Info                    : UTF-8 Plain Text
Title                            : -
Language                         : English

Text #2
ID                               : 4
Format                           : UTF-8
Codec ID                         : S_TEXT/UTF8
Codec ID/Info                    : UTF-8 Plain Text
Title                            : -
Language                         : Dutch

Text #3
ID                               : 5
Format                           : UTF-8
Codec ID                         : S_TEXT/UTF8
Codec ID/Info                    : UTF-8 Plain Text
Title                            : -
Language                         : Danish

Text #4
ID                               : 6
Format                           : UTF-8
Codec ID                         : S_TEXT/UTF8
Codec ID/Info                    : UTF-8 Plain Text
Title                            : -
Language                         : Finnish

Text #5
ID                               : 7
Format                           : UTF-8
Codec ID                         : S_TEXT/UTF8
Codec ID/Info                    : UTF-8 Plain Text
Title                            : -
Language                         : Norwegian

Text #6
ID                               : 8
Format                           : UTF-8
Codec ID                         : S_TEXT/UTF8
Codec ID/Info                    : UTF-8 Plain Text
Title                            : -
Language                         : Swedish

Menu
00:00:00.000                     : en:Dudley Demented
00:04:50.957                     : en:The Advance Guard
00:10:16.783                     : en:Number Twelve, Grimmauld Place
00:15:19.919                     : en:The Order of the Phoenix
00:17:43.229                     : en:The Ministry of Magic
00:20:52.418                     : en:The Hearing
00:25:33.532                     : en:The Originals
00:28:07.352                     : en:Luna Lovegood
00:30:20.986                     : en:Preserve, Perfect and Prune
00:34:53.925                     : en:Professor Umbridge's Class
00:37:41.092                     : en:Detention With Dolores
00:41:48.506                     : en:Thestrals and Sympathy
00:44:57.528                     : en:The Hogwarts High Inquisitor
00:50:57.388                     : en:In Hog's Head
00:56:37.394                     : en:Dumbledore's Army
01:03:28.638                     : en:Under the Mistletoe
01:07:39.055                     : en:Occlumency
01:11:16.105                     : en:House of Black
01:16:30.252                     : en:Hagrid's Tale
01:19:16.585                     : en:Unquiet Escape
01:25:30.959                     : en:Grawp
01:31:30.652                     : en:Snape's Worst Memory
01:34:49.851                     : en:O.W.L.s
01:37:42.356                     : en:Out of the Fire
01:41:40.261                     : en:Fight and Flight
01:45:59.353                     : en:The Department of Mysteries
01:48:37.177                     : en:Beyond the Veil
01:52:40.921                     : en:Side by Side
01:57:30.710                     : en:Wizards Duel
02:03:33.239                     : en:The Lost Prophecy
02:05:50.710                     : en:A Way of Coming Back
02:08:26.866                     : en:End Credits

-------------------------------------------------------------------------------------------------------------------
-------------------------------------------------FIles-for-all-----------------------------------------------------


******************************************

Brought to you by

WaRlOrD
AND
2Lions Team

meer zien??
Kom dan eens kijken op ons forum
http://www.2lions.ons-forum.nl

******************************************